<?xml version="1.0" encoding="UTF-8" standalone="no"?>
<!-- Created with Inkscape (http://www.inkscape.org/) -->

<svg
   version="1.1"
   id="svg1"
   width="2625"
   height="750"
   viewBox="0 0 2625 750"
   sodipodi:docname="Logo-FIUBA.svg"
   inkscape:version="1.4.2 (f4327f4, 2025-05-13)"
   xmlns:inkscape="http://www.inkscape.org/namespaces/inkscape"
   xmlns:sodipodi="http://sodipodi.sourceforge.net/DTD/sodipodi-0.dtd"
   xmlns="http://www.w3.org/2000/svg"
   xmlns:svg="http://www.w3.org/2000/svg">
  <defs
     id="defs1" />
  <sodipodi:namedview
     id="namedview1"
     pagecolor="#505050"
     bordercolor="#eeeeee"
     borderopacity="1"
     inkscape:showpageshadow="0"
     inkscape:pageopacity="0"
     inkscape:pagecheckerboard="0"
     inkscape:deskcolor="#505050"
     showgrid="false"
     showguides="false"
     inkscape:zoom="0.5"
     inkscape:cx="1294"
     inkscape:cy="99"
     inkscape:window-width="1920"
     inkscape:window-height="1009"
     inkscape:window-x="-8"
     inkscape:window-y="-8"
     inkscape:window-maximized="1"
     inkscape:current-layer="g1" />
  <g
     inkscape:groupmode="layer"
     inkscape:label="Image"
     id="g1">
    <path
       style="fill:#000000"
       d="m 229.91536,517.94438 c -53.85916,-5.82519 -85.57362,-32.77715 -96.71572,-82.19212 -2.04429,-9.06636 -2.1123,-12.07564 -2.49924,-110.5841 l -0.39777,-101.26417 31.80637,0.2642 31.80636,0.2641 0.54912,97.99999 c 0.63633,113.56278 0.42592,111.55195 13.19902,126.14012 18.42174,21.03951 72.87717,21.89757 90.92694,1.43275 13.21867,-14.98732 12.9492,-12.34286 12.89772,-126.57287 -0.0518,-114.92149 -5.14942,-99.58549 32.99518,-99.26449 l 31.43202,0.2645 -0.0403,100.99999 -0.0403,101 -2.62445,11.11468 c -14.06298,59.5574 -66.08971,88.74764 -143.295,80.39742 z M 47.598171,515.86339 c -37.07891,-7.2983 -41.4170599,-61.97796 -6.02419,-75.93111 19.57547,-7.71736 41.14033,0.68577 50.53333,19.69121 14.734849,29.81395 -11.34519,62.76761 -44.50914,56.2399 z m 636.232389,-3.84778 c -0.80792,-0.81076 -0.40051,-5.24226 0.66496,-7.23312 0.59409,-1.11007 5.27595,-13.11798 10.40413,-26.68426 5.12819,-13.56627 15.48073,-40.86595 23.00565,-60.66595 7.52492,-19.8 17.42813,-45.9 22.00713,-58 4.57899,-12.1 11.33279,-29.875 15.00844,-39.5 3.67564,-9.62499 9.15487,-24.02499 12.17607,-31.99999 3.0212,-7.975 7.29896,-19.225 9.50614,-25 2.20718,-5.775 5.98733,-15.858 8.40035,-22.4067 2.41301,-6.5487 5.07821,-12.9612 5.92266,-14.25 l 1.53537,-2.3433 h 32.44174 c 31.0461,0 32.4863,0.083 33.4765,1.9335 0.5691,1.0634 3.022,7.4759 5.4507,14.25 2.4288,6.7741 5.5184,15.2415 6.8658,18.8165 1.3473,3.575 4.7863,12.8 7.642,20.5 2.8558,7.7 6.4882,17.375 8.0721,21.5 1.5839,4.125 4.5312,12 6.5496,17.49999 2.0183,5.5 4.7159,12.7 5.9946,16 1.2786,3.3 4.4268,11.625 6.996,18.5 2.5692,6.875 6.0174,16.1 7.6627,20.5 1.6453,4.4 4.4756,12.05 6.2896,17 4.0189,10.96679 14.7048,39.44623 29.0793,77.5 12.2875,32.52902 15.3308,40.9822 15.3909,42.75 0.076,2.2484 -64.1983,1.76281 -66.1815,-0.5 -0.8436,-0.9625 -5.9032,-14.8 -11.2436,-30.75 -5.3404,-15.95 -10.1751,-29.5625 -10.7437,-30.25 -1.5691,-1.89725 -104.0767,-1.81301 -105.65342,0.0868 -1.04092,1.25423 -5.84755,14.47331 -17.07939,46.97133 -2.62478,7.59448 -5.17366,14.20807 -5.66418,14.69687 -0.86605,0.86302 -63.14518,1.91272 -63.97665,1.07831 z M 858.4153,398.65111 c 0,-1.40648 -4.3605,-14.60054 -13.9529,-42.21883 -9.2334,-26.58494 -18.0471,-53.45139 -18.0471,-55.01259 0,-1.8481 -1.9471,-2.9403 -3.1311,-1.7563 -0.5262,0.5262 -3.202,7.4395 -5.9461,15.3628 -2.7441,7.92336 -6.074,17.33109 -7.3997,20.90609 -1.3257,3.575 -5.6377,15.725 -9.5823,27 -3.94456,11.275 -8.24494,23.36608 -9.55635,26.86906 -4.1802,11.16592 -7.51222,10.13094 32.61555,10.13094 27.7875,0 35,-0.26401 35,-1.28117 z m -427.33328,112.6145 c -0.36666,-0.36666 -0.66666,-65.16666 -0.66666,-144 V 223.93229 l 75.75,0.018 c 88.93191,0.022 96.00923,0.5733 114.65398,8.9386 45.14735,20.2562 51.16926,85.35394 10.69186,115.58067 -8.79187,6.56538 -10.53882,8.4624 -7.79295,8.4624 15.04513,0 39.20923,25.55812 45.41186,48.03165 14.04153,50.87562 -17.52018,95.31264 -74.90503,105.46183 -8.73154,1.54427 -161.65141,2.3315 -163.14306,0.83985 z m 150.83334,-51.84739 c 33.22128,-10.24338 34.52397,-59.23128 1.89967,-71.43759 -8.99987,-3.36728 -20.12601,-4.13755 -55.39967,-3.83535 l -33.5,0.287 -0.26221,37.93344 c -0.20504,29.66397 0.013,38.11801 1,38.78009 2.73252,1.8329 79.71501,0.29116 86.26221,-1.72759 z M 567.91674,338.85865 c 29.68766,-5.16988 38.40248,-45.24876 12.85742,-59.13046 -9.25205,-5.0277 -17.40232,-5.8789 -53.3588,-5.5727 l -32.5,0.2768 -0.27989,30.5 c -0.15393,16.77499 -0.0329,31.51249 0.26906,32.74999 l 0.54893,2.25 h 33.14904 c 19.11988,0 35.75824,-0.45437 39.31424,-1.07363 z"
       id="path292"
       sodipodi:nodetypes="ssscccssssscccssssssssssssssssscsssssssssssscsssssssssssssssssscsccsssssccssscsssssscsscss"
       inkscape:label="path292" />
    <path
       style="fill:#1b9eda;stroke-width:6.28776"
       d="m 1350.441,515.54393 c -7.0486,-2.03954 -18.1264,-9.01854 -24.6166,-15.50889 -6.5713,-6.57119 -13.8211,-19.82343 -16.3589,-29.90412 -2.8666,-11.38265 -4.5586,-60.76658 -4.5586,-133.02235 v -114.9189 h 16.0967 16.0966 v 114.81805 c 0,93.31531 1.138,117.54272 6.0791,129.36695 3.3431,8.00197 9.2285,16.86976 13.0784,19.70624 3.8495,2.83639 12.858,6.26809 20.0183,7.62583 7.1606,1.35773 20.124,0.55524 28.8075,-1.78281 9.3946,-2.52966 20.7383,-9.8881 28.0094,-18.16985 6.7211,-7.65518 14.1199,-20.75879 16.4419,-29.11915 2.4397,-8.7851 4.2304,-58.93484 4.2436,-118.82291 V 222.18967 h 16.0967 16.0967 V 367.05969 511.9298 h -14.0846 -14.0846 v -20.84519 -20.84519 l -14.8663,17.36761 c -8.1758,9.5522 -22.2101,20.70365 -31.187,24.78096 -8.9766,4.07733 -23.5648,7.28978 -32.4179,7.13878 -8.8532,-0.1509 -21.8639,-1.94329 -28.913,-3.98284 z m 278.4113,-3.13424 c -8.8531,-4.0654 -19.1858,-10.87028 -22.961,-15.12196 -3.7745,-4.25167 -9.5895,-14.0146 -12.9208,-21.69516 l -6.057,-13.96485 -0.1571,25.15104 -0.1572,25.15104 h -14.0846 -14.0845 V 316.7576 121.58553 h 13.9933 13.9941 l 1.0965,73.44103 1.0972,73.44109 10.0605,-17.70854 c 5.752,-10.12485 16.0652,-20.89581 24.082,-25.15105 8.6948,-4.61491 22.3544,-7.44251 35.9528,-7.44251 13.8332,0 28.1787,3.02421 38.8497,8.18986 9.3046,4.5044 21.5003,14.91696 27.1014,23.13892 5.6018,8.22203 13.1785,24.90897 16.838,37.08208 3.6595,12.17303 7.651,40.24164 8.8703,62.37452 1.2594,22.85677 0.1948,53.18395 -2.4618,70.19963 -2.5729,16.47694 -8.3174,38.18492 -12.7653,48.23989 -4.4481,10.05513 -12.0732,22.61784 -16.945,27.91731 -4.8718,5.29947 -16.101,12.97849 -24.9542,17.06443 -8.8532,4.08604 -23.3401,7.42915 -32.1932,7.42915 -8.8533,0 -23.3403,-3.32618 -32.1934,-7.39165 z m 57.7203,-27.1798 c 5.1875,-3.39478 12.8711,-13.94914 17.0757,-23.45425 4.2046,-9.50504 9.6549,-31.53555 12.1122,-48.95662 2.5854,-18.32915 3.3388,-47.40703 1.7882,-69.01407 -1.4738,-20.5367 -5.2402,-45.96214 -8.3696,-56.50087 -3.181,-10.71081 -11.1734,-24.41409 -18.1221,-31.07154 -11.1757,-10.70679 -15.0804,-11.90992 -38.6539,-11.90992 H 1626.18 l -11.5374,12.91231 c -6.3457,7.10179 -14.406,22.4942 -17.912,34.2054 -4.3737,14.60766 -6.4027,37.74818 -6.4631,73.70202 -0.063,28.82492 1.9108,61.42066 4.3536,72.43505 2.4421,11.01434 8.8696,26.76248 14.2826,34.99571 6.0885,9.2608 14.8385,16.47896 22.9435,18.92738 7.2057,2.17674 20.3452,3.04516 29.1985,1.92967 8.8531,-1.11534 20.3403,-4.80557 25.5269,-8.20027 z m 160.0644,30.58554 c -6.3757,-1.90904 -16.0545,-7.63873 -21.5092,-12.73264 -5.4539,-5.09398 -12.3611,-13.95848 -15.3483,-19.69898 -2.9874,-5.74041 -6.6166,-19.36791 -8.0647,-30.28325 -1.5381,-11.59561 -0.6225,-27.31675 2.2064,-37.81597 2.661,-9.88343 8.4256,-23.00734 12.8095,-29.16428 4.3843,-6.15692 14.6094,-14.55847 22.7232,-18.66997 8.1132,-4.11158 32.753,-12.56464 54.7538,-18.78461 22.0015,-6.21997 43.2794,-14.58573 47.284,-18.59042 5.5288,-5.52856 7.2819,-13.56309 7.2819,-33.37501 0,-22.96358 -1.3671,-27.62356 -11.3966,-38.84852 -9.5693,-10.70961 -14.9485,-13.04943 -33.5471,-14.59178 -15.5792,-1.29187 -25.9074,0.10561 -34.8135,4.71125 -6.9642,3.60139 -15.254,11.55991 -18.4218,17.6854 -3.1678,6.12565 -7.0216,17.86564 -8.5645,26.08903 l -2.805,14.95154 h -14.1488 -14.1486 l 1.924,-20.0219 c 1.2022,-12.51143 6.0224,-26.2156 12.8503,-36.53345 6.7429,-10.18927 17.3737,-19.43836 27.7636,-24.1555 11.3374,-5.14743 26.0872,-7.67298 45.1593,-7.73239 21.5217,-0.0669 32.6115,2.08558 46.1855,8.9659 10.5791,5.36219 21.1827,14.79798 26.0036,23.13899 7.4642,12.91434 8.308,23.1124 10.1528,122.73708 1.1068,59.75893 3.4772,110.91615 5.2673,113.68281 1.7908,2.76658 7.7962,5.03014 13.3458,5.03014 8.6337,0 9.9064,1.59771 8.8174,11.06649 -1.0721,9.31391 -3.4206,11.27179 -14.8291,12.36302 -7.456,0.71316 -18.7967,-0.87431 -25.2026,-3.52755 -6.4054,-2.65324 -12.4743,-8.66934 -13.4866,-13.36906 -1.0123,-4.69972 -2.3473,-12.88072 -2.9672,-18.17978 l -1.1261,-9.63498 -10.0605,15.67123 c -5.9337,9.24225 -17.4265,19.38541 -28.0157,24.72543 -11.3267,5.71162 -24.6977,8.92673 -36.2175,8.70851 -10.0448,-0.19049 -23.4792,-1.90783 -29.855,-3.81678 z m 54.0748,-24.00346 c 7.8728,-2.18698 19.0947,-8.96762 24.9379,-15.06819 5.8432,-6.10058 13.4369,-17.82452 16.8738,-26.05333 4.39,-10.50986 6.2501,-28.39913 6.2501,-60.12563 0,-37.70577 -0.8514,-43.99974 -5.1567,-38.11278 -2.859,3.91045 -20.974,11.50629 -40.668,17.05276 -19.5322,5.50058 -39.9405,12.90231 -45.3517,16.44816 -5.4118,3.54578 -12.722,12.02092 -16.2451,18.8337 -3.523,6.81272 -6.4052,21.52597 -6.4052,32.69603 0,11.27913 3.0551,26.21745 6.8718,33.59734 3.779,7.30847 12.6397,15.79683 19.6895,18.86304 7.0499,3.0663 15.5346,5.63579 18.8545,5.71011 3.32,0.0742 12.4768,-1.65431 20.3491,-3.84121 z M 1063.4568,381.14426 V 250.35887 h -20.1208 -20.1208 v -14.08455 -14.08465 h 20.1208 20.1208 v -33.61024 c 0,-28.33327 1.4431,-35.75717 9.1934,-47.28394 5.2535,-7.81282 15.1711,-15.73245 23.139,-18.4768 7.6698,-2.64169 21.6418,-4.90528 31.0483,-5.03021 l 17.1027,-0.22699 v 13.1467 13.14672 l -16.4852,0.43192 c -10.8175,0.28359 -19.3203,3.26701 -24.7298,8.67651 -6.3915,6.39135 -8.684,15.09713 -10.2013,38.73518 l -1.9566,30.49106 h 26.6864 26.6865 v 14.08458 14.08456 h -26.157 -26.1571 v 130.78545 130.78547 h -14.0846 -14.0847 z m 132.7976,-14.08457 V 222.18967 h 16.0967 16.0966 V 367.05969 511.9298 h -16.0966 -16.0967 z m 0,-217.305 v -28.16916 h 16.0967 16.0966 v 28.16916 28.16922 h -16.0966 -16.0967 z"
       id="path4245"
       sodipodi:nodetypes="cscscccscssssscccccccccccssccscscccccccccccsssscsscsssssscsssccscscccssscscsscsssssssssscccssssssscscssscccssssssscscsscsssccccccccscssccccsccccccccccccccccccccccccccccccc" />
    <path
       style="fill:#1b9eda;stroke-width:6.29603"
       d="m 2265.5548,539.01166 c -12.1891,-3.18988 -37.2335,-13.1869 -55.6544,-22.21551 -25.4517,-12.47483 -40.9625,-23.83601 -64.6105,-47.32521 -22.5271,-22.37582 -35.7117,-39.80946 -47.7559,-63.14523 -9.1513,-17.72961 -19.8294,-44.02181 -23.7297,-58.42712 -4.5509,-16.80615 -7.0919,-40.63037 -7.0919,-66.48601 0,-25.8557 2.541,-49.67993 7.0919,-66.48608 3.9003,-14.40532 14.5891,-40.69751 23.7529,-58.42712 11.7968,-22.82454 25.5581,-41.16957 47.1346,-62.83716 23.5069,-23.605939 38.2717,-34.42018 64.5873,-47.306065 18.7626,-9.187474 44.9931,-19.553309 58.2904,-23.035198 13.4597,-3.52433 41.1458,-6.401238 62.4565,-6.489943 23.0926,-0.09633 48.6715,2.506192 64.4714,6.559072 14.4053,3.695137 39.7908,13.350466 56.4122,21.456409 22.8868,11.161276 38.5809,23.075184 64.6685,49.09231 22.0588,21.999135 39.1519,43.375025 47.528,59.436555 7.1944,13.79522 16.7683,35.55427 21.275,48.35346 5.0997,14.4827 9.0417,38.62895 10.4375,63.9364 1.6778,30.40374 0.5036,48.48902 -4.6541,71.67141 -3.7945,17.05354 -14.2838,45.89892 -23.3103,64.10084 -12.922,26.05572 -23.7833,40.4011 -51.0677,67.44881 -26.0927,25.86571 -42.123,37.99601 -64.8769,49.09238 -16.6214,8.10587 -41.3622,17.57862 -54.9793,21.05063 -15.1425,3.86091 -40.9644,6.20964 -66.4861,6.04746 -22.9502,-0.14607 -51.7004,-2.87514 -63.8894,-6.06509 z m -57.2592,-53.75848 c 8.2225,-4.23817 20.8562,-13.8575 28.0746,-21.37614 7.2184,-7.51871 16.738,-23.95159 21.1545,-36.51757 4.4167,-12.56592 8.0301,-28.90127 8.0301,-36.30069 0,-13.45352 0,-13.45352 -23.6366,-11.74384 -21.2037,1.53378 -24.3141,0.7423 -30.2209,-7.69096 -3.6216,-5.17043 -6.5845,-12.92115 -6.5845,-17.22386 0,-4.30263 -3.0686,-14.77871 -6.8191,-23.2801 -5.0684,-11.48724 -9.208,-15.45707 -16.1178,-15.45707 -5.1142,0 -9.2986,-1.4518 -9.2986,-3.22628 0,-1.77441 3.4817,-19.1574 7.7365,-38.62894 4.2555,-19.47152 8.7447,-36.41073 9.9761,-37.64254 1.2322,-1.23187 5.0035,0.0567 8.3819,2.85725 3.3778,2.80337 6.141,7.48787 6.141,10.41004 0,2.92212 1.6609,6.3396 3.6914,7.59433 2.0305,1.25473 8.4859,0.45835 14.3456,-1.76936 6.4131,-2.43834 9.5239,-5.87967 7.8146,-8.64545 -2.05,-3.31713 1.5236,-3.7792 12.8533,-1.66172 8.6313,1.61317 17.9594,4.80608 20.7296,7.09531 2.7704,2.28923 5.0369,7.26932 5.0369,11.06677 0,3.79752 7.253,13.41569 16.1178,21.37381 10.1297,9.09335 16.1179,17.98843 16.1179,23.94115 0,5.20957 -2.8226,13.50189 -6.2727,18.42739 -4.6787,6.67982 -10.3104,8.95551 -22.1621,8.95551 -8.7388,0 -15.8892,0.82128 -15.8892,1.82509 0,1.00385 2.1242,6.48705 4.7201,12.18502 2.5965,5.6979 8.8119,11.38667 13.8128,12.6418 5.0004,1.25504 13.114,1.00534 18.03,-0.55469 8.4827,-2.69236 8.805,-2.00516 6.3256,13.49843 -1.4368,8.98442 -0.6642,25.41805 1.7162,36.51933 2.3813,11.10122 9.6934,27.58887 16.2494,36.63928 6.5562,9.05034 17.7579,20.01493 24.8939,24.36568 7.7108,4.70173 20.2008,7.91662 30.7896,7.92562 15.9571,0.0126 19.695,-1.94641 35.8305,-18.78595 16.9326,-17.67193 18.3428,-18.35159 23.4862,-11.31817 3.0095,4.11546 5.4138,10.30936 5.3433,13.76411 -0.07,3.45476 -2.7324,9.72176 -5.9151,13.92656 -3.1832,4.20486 -4.8316,9.19131 -3.6637,11.08101 1.168,1.88974 5.5576,3.43586 9.7551,3.43586 4.1969,0 12.2232,-2.0921 17.8354,-4.64917 5.6117,-2.55701 13.8568,-12.19579 18.3221,-21.41946 4.8252,-9.96875 8.091,-24.83417 8.052,-36.65281 -0.064,-13.09567 -3.1386,-25.25228 -9.0664,-35.6139 -4.9498,-8.65232 -12.4063,-17.71859 -16.5698,-20.1473 -5.917,-3.45178 -8.0318,-3.09632 -9.6884,1.62835 -1.1653,3.32431 -8.8785,12.84389 -17.1402,21.15465 -11.0337,11.09894 -18.3997,15.11045 -27.7446,15.11045 -6.9975,0 -19.7986,-3.60975 -28.4468,-8.02169 -8.6483,-4.41194 -20.5743,-14.38113 -26.5031,-22.15383 -5.9284,-7.77263 -13.2065,-20.93547 -16.1745,-29.25076 -2.9674,-8.31523 -5.4744,-26.17045 -5.572,-39.67817 -0.1385,-18.79031 -1.9612,-26.17453 -7.773,-31.4343 -4.1781,-3.78108 -8.5998,-11.89186 -9.8263,-18.02401 -1.7943,-8.97127 -12.8892,-18.1804 -56.7933,-47.14015 -30.01,-19.79496 -54.5997,-36.91586 -54.6451,-38.04657 -0.064,-1.13064 22.1306,-9.77232 49.2791,-19.20369 27.1483,-9.43132 53.37,-17.11922 58.2703,-17.08414 4.9002,0.0377 12.3716,3.78 16.6033,8.32208 7.6937,8.25831 7.6937,8.25831 10.0849,-0.88585 1.3152,-5.02932 1.3694,-13.21372 0.1195,-18.18757 -1.2484,-4.97387 -5.8734,-10.18716 -10.2781,-11.58519 -4.4052,-1.39804 -13.9199,-1.43299 -21.144,-0.0774 -7.2247,1.35528 -28.6948,8.73805 -47.7113,16.40618 -19.0165,7.66804 -42.4132,15.03755 -51.9925,16.37652 -12.9158,1.80532 -15.856,1.32493 -11.3738,-1.85865 3.3243,-2.36126 8.55,-4.32096 11.613,-4.35489 3.0624,-0.0315 23.9149,-8.42157 46.3387,-18.63913 24.9795,-11.38215 47.1931,-18.79535 57.353,-19.13991 16.5832,-0.56225 16.5832,-0.56225 14.6124,-15.429618 -1.0834,-8.176902 -0.8133,-19.476751 0.5982,-25.110816 1.4142,-5.634059 7.8945,-12.996563 14.401,-16.361163 6.507,-3.364657 17.479,-6.117469 24.3831,-6.117469 6.9049,0 15.8327,1.754894 19.8407,3.899761 5.4549,2.919404 9.0015,2.004905 14.1082,-3.637659 6.5515,-7.239673 6.0064,-7.712123 -13.7946,-11.958731 -11.3386,-2.431648 -32.7658,-4.389714 -47.6162,-4.351247 -14.8499,0.03776 -39.459,2.709493 -54.686,5.935645 -15.2276,3.226144 -41.5198,12.674085 -58.4272,20.995417 -22.6687,11.15674 -39.3156,23.618022 -63.3939,47.45464 -24.7862,24.53725 -36.1777,39.60566 -47.2859,62.54585 -8.0474,16.6215 -17.3794,41.02805 -20.7371,54.23686 -3.3577,13.20875 -6.1053,40.47996 -6.1053,60.60263 0,20.12267 2.7476,47.39383 6.1053,60.60257 3.3577,13.20882 12.6897,37.61542 20.7371,54.23693 11.1655,23.05856 22.5695,38.09945 48.1207,63.46392 18.4178,18.28365 34.5437,33.24302 35.835,33.24302 1.2913,0 9.0758,-3.46768 17.2977,-7.70584 z m 5.031,-258.38363 c -12.1041,-4.35244 -22.5302,-7.91361 -23.1692,-7.91361 -0.6392,0 -1.1624,-3.6265 -1.1624,-8.0589 0,-4.4324 1.9398,-8.05892 4.3109,-8.05892 2.3711,0 12.2514,5.46325 21.9569,12.1405 9.7047,6.67732 18.7514,13.93034 20.1031,16.11783 1.3525,2.18756 1.8984,3.91197 1.2132,3.832 -0.6849,-0.08 -11.1484,-3.70646 -23.2525,-8.0589 z m 203.9182,131.24725 c 4.6326,-3.24485 9.524,-11.4055 10.8702,-18.13495 1.5129,-7.5641 11.4015,-21.07991 25.9025,-35.40229 15.7709,-15.57757 25.0443,-28.60032 28.3062,-39.75234 2.6683,-9.12195 4.851,-27.93433 4.851,-41.80543 0,-18.53725 -2.7971,-31.4536 -10.5571,-48.74444 -10.5572,-23.52435 -10.5572,-23.52435 0,-36.07075 5.8069,-6.90056 10.5571,-16.69592 10.5571,-21.7675 0,-5.07158 -3.9154,-14.19873 -8.7009,-20.282583 -7.3721,-9.37258 -10.9414,-10.760914 -23.3773,-9.092973 -12.8507,1.723665 -15.4869,0.556567 -21.1923,-9.385168 -4.5206,-7.876328 -10.9854,-12.192127 -21.1082,-14.091134 -10.9216,-2.048914 -16.4955,-1.014353 -22.1613,4.11332 -7.1522,6.472438 -8.0331,6.387635 -15.9566,-1.536103 -4.6131,-4.612655 -13.0026,-8.386749 -18.6438,-8.386749 -5.6413,0 -14.7075,4.450728 -20.1472,9.890493 -5.4398,5.439765 -9.8905,12.782877 -9.8905,16.317973 0,3.535091 2.7099,11.667036 6.0215,18.071094 3.3111,6.40401 10.0611,14.47362 14.9996,17.93241 5.7464,4.02517 17.7989,6.28878 33.4842,6.28878 20.0484,0 27.8164,2.09928 42.7047,11.54124 10.0094,6.34765 22.1827,16.60628 27.052,22.79697 4.8701,6.19068 11.6899,21.00977 15.1552,32.9313 4.1636,14.32125 5.3423,27.43561 3.4749,38.65223 -1.5546,9.3372 -6.1046,23.44678 -10.1109,31.35465 -4.0066,7.90787 -14.5085,20.90431 -23.3374,28.88099 -8.8296,7.97669 -19.7173,16.46405 -24.1957,18.86076 -4.4783,2.39676 -9.1934,7.669 -10.4779,11.71608 -1.7358,5.46928 -5.3044,6.92261 -13.899,5.66113 -6.3596,-0.93345 -12.7588,0.23737 -14.2202,2.60127 -1.4606,2.36415 0.1007,9.62763 3.4678,16.14112 3.3685,6.51343 8.4286,12.76991 11.2454,13.90331 2.8175,1.13334 8.7981,2.20381 13.2915,2.37876 4.4935,0.17504 11.96,-2.33669 16.5925,-5.58147 z m 23.529,-228.00613 c -1.5552,-4.89894 0.077,-12.37251 4.0117,-18.37904 3.6486,-5.56752 9.4976,-9.55857 12.9982,-8.86896 3.5012,0.6896 8.3731,4.53321 10.8267,8.54137 3.5876,5.85965 2.8822,8.39865 -3.5977,12.95829 -4.4324,3.11892 -10.2486,7.54585 -12.9256,9.83767 -2.6764,2.29175 -5.7275,4.16684 -6.7795,4.16684 -1.0527,0 -3.0927,-3.71529 -4.5338,-8.25617 z m -39.2873,-19.83922 c -3.8442,-5.47956 -6.9891,-12.82324 -6.9891,-16.319298 0,-3.496057 2.1758,-8.532371 4.8353,-11.191816 2.6595,-2.659439 8.1564,-4.835344 12.2149,-4.835344 4.0584,0 8.4493,2.78744 9.7563,6.194283 1.3077,3.406842 -0.3777,9.299918 -3.7398,13.095729 -3.364,3.795806 -6.7853,10.527956 -7.603,14.960366 -1.3984,7.58627 -1.8959,7.47464 -8.4746,-1.90392 z m -52.7033,-7.47961 c -3.6681,-4.052883 -6.6688,-11.242062 -6.6688,-15.976046 0,-4.73398 3.5005,-10.480677 7.7793,-12.770476 5.7811,-3.093931 9.2678,-2.674235 13.5761,1.63426 4.6704,4.670326 4.9255,8.585887 1.309,20.139283 -2.4686,7.887979 -5.5777,14.341789 -6.908,14.341789 -1.3304,0 -5.4196,-3.31594 -9.0876,-7.36881 z m 44.8176,210.62784 c 6.5976,-4.62091 8.9554,-10.32674 8.9554,-21.66859 0,-8.46777 -2.604,-17.5571 -5.7866,-20.1984 -4.2952,-3.56475 -7.9298,-3.65535 -14.1032,-0.35133 -4.574,2.44796 -8.3163,6.92097 -8.3163,9.94005 0,3.62846 -4.4388,5.28777 -13.0958,4.89503 -11.3939,-0.51691 -13.2582,0.81263 -14.3461,10.23085 -0.9696,8.39739 1.2894,12.20177 10.0736,16.96389 6.2286,3.37637 15.0002,6.2114 19.4938,6.30017 4.4934,0.0887 12.1999,-2.66138 17.1252,-6.11135 z m -22.5901,-44.72004 c 4.1717,-3.77515 7.3688,-12.18275 7.3688,-19.37709 0,-6.98965 -2.4044,-15.99712 -5.3441,-20.01657 -3.7309,-5.1033 -7.9833,-6.47029 -14.0936,-4.53105 -4.8121,1.5274 -9.8313,7.08535 -11.1528,12.3511 -1.6489,6.57065 -5.7489,9.96245 -13.0705,10.8124 -6.7581,0.78462 -11.21,4.09431 -12.1477,9.03103 -0.8139,4.28595 1.7838,10.17904 5.7724,13.09574 3.9889,2.91674 13.5629,5.3032 21.276,5.3032 7.7127,0 17.3387,-3.00095 21.3915,-6.66876 z m -32.2357,-36.2651 c 4.0527,-3.66775 7.3688,-11.94665 7.3688,-18.39742 0,-6.45086 -1.8769,-15.23607 -4.1711,-19.52278 -2.2943,-4.28671 -7.3713,-7.79405 -11.2825,-7.79405 -3.9111,0 -9.2872,2.17591 -11.9466,4.83535 -2.6595,2.65944 -4.8354,7.97883 -4.8354,11.82073 0,4.61876 -3.7424,7.41735 -11.0464,8.26039 -7.1176,0.82156 -11.5727,4.04645 -12.5265,9.06759 -0.814,4.28595 1.7837,10.17904 5.7721,13.09574 3.9892,2.91675 13.563,5.30314 21.2762,5.30314 7.7127,0 17.3386,-3.00088 21.3914,-6.66869 z m -32.9258,-46.92307 c 0,-7.31347 -2.1758,-15.47312 -4.8352,-18.13256 -2.6595,-2.65944 -11.7258,-4.83535 -20.1474,-4.83535 -13.2474,0 -15.3118,1.23731 -15.3118,9.17709 0,5.0474 2.8232,13.20704 6.2727,18.13255 4.4167,6.30597 10.3776,8.95547 20.1472,8.95547 13.0103,0 13.8745,-0.82837 13.8745,-13.2972 z"
       id="path4311"
       sodipodi:nodetypes="ssssssssssssssssssssssssssssssssssssscssssssssssssssssssscssssssssssssssssssssscscsssssssscssssssssscssssssssssssssssssssssssssssssssssssssssssssssssssssssssssssssssssssssssssssssssssssssssssssssssssssssssssssssssssss" />
    <path
       style="fill:#000000"
       d="m 1203.672,738.72583 c -6.971,-2.37373 -12.3973,-7.74545 -16.7074,-16.53954 -4.4076,-8.99295 -6.3989,-18.78461 -7.118,-35 -0.8749,-19.7294 1.6971,-36.5524 7.3546,-48.1066 10.499,-21.44171 41.0447,-25.05064 56.2693,-6.64813 5.5471,6.705 9.354,24.43226 5.5594,25.88837 -0.8182,0.31398 -3.1671,0.1737 -5.2197,-0.31172 -3.3155,-0.78412 -3.8234,-1.32553 -4.5517,-4.85226 -2.3841,-11.54455 -5.7201,-16.8879 -12.7978,-20.49868 -5.1238,-2.61394 -13.7357,-2.62761 -18.8277,-0.0299 -11.6207,5.92848 -16.5491,20.44249 -16.4884,48.55891 0.051,23.77067 3.51,36.6845 11.8956,44.4141 5.0527,4.65743 10.925,6.54139 17.4063,5.58436 9.1945,-1.35767 15.8736,-9.72375 18.7852,-23.53007 l 1.7859,-8.46839 4.7602,-0.30521 c 3.4474,-0.22103 4.9136,0.0947 5.3166,1.14472 0.894,2.32986 -1.1935,14.67022 -3.5272,20.85075 -3.0766,8.14786 -11.1034,16.10203 -18.3853,18.21894 -7.2172,2.0981 -18.7536,1.93092 -25.5099,-0.36966 z m 82.9789,0.3913 c -9.8789,-3.10263 -15.5611,-10.21818 -17.6278,-22.07446 -1.705,-9.78146 -2.4033,-91.8586 -0.7952,-93.46671 0.5559,-0.55586 3.2071,-0.87093 5.8916,-0.70016 l 4.8809,0.31049 -0.3029,41.5 c -0.1958,26.82282 0.078,43.43281 0.7735,46.96505 1.6121,8.18505 4.5571,13.44524 9.2757,16.56785 3.6365,2.40658 5.1627,2.75897 12.2134,2.82021 11.1331,0.0967 16.2041,-2.87356 20.2597,-11.86676 l 1.7978,-3.98635 0.2034,-46 0.2034,-46 5.5466,-0.2999 5.5466,-0.29991 v 46.646 c 0,38.82827 -0.2554,47.52454 -1.5239,51.88801 -2.6839,9.23221 -8.7707,15.38792 -17.8949,18.09752 -6.1775,1.83452 -22.4695,1.77675 -28.4479,-0.10088 z m 780.4313,-0.39256 c -9.718,-3.91001 -16.8971,-13.51711 -20.7095,-27.71376 -3.2366,-12.05222 -3.7804,-41.25204 -1.0175,-54.62928 3.6061,-17.4592 9.7125,-27.36266 19.9808,-32.40516 5.0099,-2.46025 6.8071,-2.79008 15.2026,-2.79008 h 9.5211 l 6.7215,3.30899 c 4.9234,2.42379 7.5179,4.46658 9.6987,7.63618 3.6968,5.37316 6.639,12.71316 7.5613,18.86368 l 0.7035,4.69115 -4.8636,-0.0153 c -6.209,-0.0195 -6.9448,-0.57335 -7.6184,-5.73439 -0.7583,-5.80914 -5.0477,-12.7604 -9.825,-15.92184 -4.2722,-2.82727 -11.3815,-4.02729 -17.2909,-2.91867 -4.8938,0.91808 -12.8546,8.36206 -15.4872,14.48185 -5.83,13.55215 -6.8391,47.27731 -1.9097,63.82352 3.911,13.12785 9.6128,19.76683 18.3839,21.40544 14.6606,2.7389 24.3695,-7.40333 27.3074,-28.52627 0.592,-4.25647 1.0764,-9.05648 1.0764,-10.66669 v -2.92765 h -13.8834 -13.8834 l -0.497,-2.59953 c -0.7321,-3.82983 0.2246,-6.35386 2.6333,-6.94692 1.1718,-0.28852 9.5555,-0.3961 18.6305,-0.23907 l 16.5,0.28552 v 30 30 l -3.75,0.31037 -3.75,0.31036 v -6.00135 c 0,-3.30074 -0.3789,-6.23555 -0.8421,-6.52179 -0.4632,-0.28625 -3.0027,1.73401 -5.6434,4.48947 -6.6902,6.98081 -9.4968,8.21874 -19.5145,8.60727 -6.7121,0.26032 -9.5381,-0.088 -13.4354,-1.65605 z m -1038.3707,0.12891 c -1.0506,-0.68738 -1.2963,-11.991 -1.2558,-57.76091 0.028,-31.29845 0.053,-57.25058 0.056,-57.67138 0,-0.42081 13.1682,-0.64581 29.2557,-0.5 l 29.25,0.2651 0.325,2.83843 c 0.1965,1.71627 -0.39,3.62841 -1.4834,4.8366 l -1.8083,1.99816 -22.0166,-0.29619 -22.0166,-0.29619 v 20.9596 20.95959 h 21.4999 21.5 l 0.3059,4.21692 c 0.2681,3.6962 0.021,4.28661 -2,4.78124 -1.2682,0.31038 -11.0809,0.43776 -21.8059,0.28308 l -19.4999,-0.28124 -0.5,28 -0.5,28 -4,0.26091 c -2.2,0.1435 -4.5878,-0.12367 -5.3062,-0.59372 z m 58.4727,0.16614 c -1.2036,-1.20363 -0.703,-4.71384 1.7583,-12.32992 1.3337,-4.12688 4.5105,-14.70341 7.0596,-23.50341 2.5491,-8.8 6.3771,-21.625 8.5067,-28.5 3.8046,-12.28265 11.728,-39.39728 13.9535,-47.75 l 1.1324,-4.25 7.2114,0.003 7.2115,0.003 3.2717,11.74659 c 2.9249,10.50125 7.5249,26.21698 16.1709,55.24658 9.2404,31.02559 13.9901,48.29981 13.499,49.0945 -0.6561,1.06146 -7.1214,1.08782 -9.7835,0.0399 -1.3789,-0.54279 -2.7066,-4.0722 -5.2822,-14.04163 -1.8922,-7.32413 -4.1124,-14.61624 -4.9338,-16.20468 l -1.4935,-2.88726 h -18.9991 -18.999 l -0.9952,2.61741 c -0.5473,1.43957 -2.623,8.52707 -4.6126,15.75 -1.9896,7.22292 -4.3167,13.69509 -5.1712,14.38259 -1.6321,1.31302 -8.3621,1.72606 -9.5049,0.58333 z m 55.3334,-46.09311 c 0,-1.51787 -1.6267,-8.60537 -3.6148,-15.75 -5.1903,-18.65168 -7.9331,-29.17243 -9.3132,-35.72317 -1.9896,-9.44372 -3.5433,-8.55376 -6.5168,3.73295 -0.9318,3.85 -4.1379,16.02819 -7.1247,27.06264 -2.9868,11.03445 -5.4305,20.82195 -5.4305,21.75 0,1.51284 1.6548,1.68736 16,1.68736 h 16 z m 214.5,45.9839 -2,-0.2977 V 680.6495 622.68629 h 5.75 5.75 l 0.015,52.75 c 0.01,29.0125 0.3459,53.2203 0.75,53.7951 0.4763,0.67751 8.8244,1.02924 23.7347,1 l 23,-0.0451 0.3075,4.25 c 0.1691,2.3375 -0.056,4.26655 -0.5,4.28679 -5.334,0.24301 -55.326,0.40786 -56.8075,0.18733 z m 81.9885,-0.42147 c -0.269,-0.71646 -0.6015,-24.90863 -0.7388,-53.76038 l -0.2497,-52.45774 -13.6717,0.29209 -13.6717,0.29209 -1.5051,-2.33436 c -0.885,-1.37247 -1.2812,-3.4675 -0.9618,-5.08435 l 0.5434,-2.75 h 35.3835 35.3834 v 3.06574 c 0,1.68616 -0.4899,3.98111 -1.0887,5.09989 l -1.0886,2.03414 -13.1614,-0.34988 -13.1613,-0.34989 -0.5,53.5 -0.5,53.5 -5.2612,0.30265 c -3.6333,0.209 -5.4125,-0.10042 -5.7503,-1 z m 37.0731,0.2971 c -0.306,-0.49514 2.6311,-11.63264 6.527,-24.75 3.8958,-13.11736 8.3322,-28.12475 9.8585,-33.34975 10.2841,-35.20466 16.5438,-55.67272 17.3557,-56.75 1.2522,-1.66146 12.1148,-1.66146 13.4774,0 0.5638,0.6875 3.5953,10.025 6.7367,20.75 3.1414,10.725 7.8848,26.925 10.5409,36 2.6561,9.075 7.5942,25.67401 10.9735,36.88669 6.7024,22.23823 6.7031,22.06877 -0.09,22.098 -4.2375,0.0182 -6.536,-1.57616 -7.1861,-4.98469 -1.1987,-6.28541 -7.0385,-26.62944 -7.9656,-27.75 -0.7621,-0.9211 -6.1126,-1.25 -20.3343,-1.25 h -19.3 l -0.9819,3.25 c -0.54,1.7875 -2.4566,9.02972 -4.2592,16.09383 -2.8356,11.11234 -3.5987,12.96599 -5.6608,13.75 -3.0677,1.16634 -8.9722,1.16994 -9.6916,0.006 z m 56.8361,-43.93428 c 0.2837,-0.45899 -1.7283,-8.89649 -4.4711,-18.75 -2.7428,-9.85351 -5.4359,-19.94047 -5.9847,-22.41547 -1.8091,-8.15918 -5.0927,-18 -6.0061,-18 -0.4938,0 -1.1679,1.2375 -1.4981,2.75 -0.3301,1.5125 -0.977,3.875 -1.4374,5.25 -0.4604,1.375 -2.7065,9.7 -4.9915,18.5 -2.285,8.8 -5.2508,19.52379 -6.5908,23.83065 -1.34,4.30686 -2.1807,8.24436 -1.8682,8.75 0.709,1.14717 32.1412,1.22833 32.8479,0.0848 z m 37.6023,-13.71805 v -58.65276 l 20.25,0.45334 c 22.3235,0.49977 27.2983,1.46897 34.567,6.73445 11.0212,7.98366 15.4803,22.97365 15.4738,52.01755 -0.01,35.23438 -7.2525,50.4778 -26.3897,55.52609 -2.9163,0.7693 -13.4863,1.61583 -24.514,1.96328 l -19.3871,0.61081 z m 38.7913,46.94653 c 14.4768,-4.03239 20.2087,-17.47484 20.2087,-47.39395 0,-28.22708 -4.6416,-40.05058 -18,-45.85177 -3.4677,-1.50593 -7.3675,-2.03382 -17,-2.30123 l -12.5,-0.347 -0.2598,48.43498 c -0.204,38.06338 0.01,48.61737 1,49.28673 1.7809,1.20414 20.2244,-0.0655 26.5511,-1.82776 z m 97.4587,10.96824 c -0.9796,-0.41444 -1.25,-13.08112 -1.25,-58.54657 V 622.4842 l 20.75,0.41333 c 18.1773,0.36209 21.4082,0.67545 26.059,2.52743 14.0639,5.60026 20.256,15.39397 23.13,36.58369 1.4692,10.83236 1.3146,29.43257 -0.334,40.17764 -3.2212,20.99387 -10.6102,31.04445 -25.7621,35.04145 -5.1674,1.36313 -40.1409,2.85816 -42.5929,1.82074 z m 35.75,-10.51426 c 10.8539,-2.31731 17.611,-10.12949 20.6949,-23.92622 2.3828,-10.65988 2.3485,-37.71209 -0.061,-48.04269 -2.8785,-12.34219 -9.4637,-20.45153 -18.5351,-22.82488 -1.9794,-0.51788 -8.7739,-1.04966 -15.0989,-1.18173 l -11.5,-0.24013 -0.5,46.93386 c -0.275,25.81362 -0.1578,47.988 0.2604,49.2764 l 0.7604,2.34254 9.7396,-0.6882 c 5.3568,-0.37851 11.7646,-1.12054 14.2396,-1.64895 z m 55.6006,10.41936 c -0.3303,-0.33034 -0.6006,-26.62562 -0.6006,-58.43396 v -57.83333 h 29 c 22.4743,0 29.0249,0.28128 29.1107,1.25 0.2552,2.88263 -0.3765,6.33722 -1.3831,7.56368 -0.835,1.01734 -5.8323,1.28336 -22.1529,1.17928 -11.5911,-0.0739 -21.6372,-0.10258 -22.3247,-0.0637 -0.9568,0.0541 -1.25,4.85371 -1.25,20.46373 0,17.07989 0.2404,20.48526 1.4796,20.9608 0.8138,0.31229 9.0918,0.30153 18.3955,-0.0239 9.3037,-0.32543 18.5379,-0.2874 20.5204,0.0845 l 3.6045,0.67622 v 3.83354 3.83354 l -15.25,0.50322 c -8.3875,0.27677 -18.175,0.44379 -21.75,0.37115 l -6.5,-0.13208 v 23.5 23.5 l 21.5,-0.30327 c 24.3906,-0.34404 27.3445,0.10614 27.8281,4.24116 0.1806,1.54316 -0.1594,3.29343 -0.7555,3.88948 -1.1558,1.15582 -58.3522,2.05977 -59.472,0.93992 z m 120.3994,-57.76729 v -58.5 h 5.5 c 3.025,0 5.5022,0.3375 5.5048,0.75 0,0.4125 0.017,26.36438 0.033,57.67084 0.022,45.24238 -0.2354,57.08781 -1.2548,57.73468 -0.7055,0.44762 -3.1951,0.82075 -5.5326,0.82917 l -4.25,0.0153 z m 35.25,57.83772 c -0.9798,-0.39536 -1.25,-13.02339 -1.25,-58.42105 v -57.91667 h 6.845 c 8.1221,0 8.8819,0.60805 12.4966,10 1.3759,3.575 8.2087,19.325 15.184,35 6.9753,15.675 14.4474,32.94966 16.6047,38.38812 2.1573,5.43847 4.1918,10.32402 4.521,10.85677 1.8693,3.02443 2.3196,-6.23811 2.3334,-47.99489 l 0.015,-46.25 h 6.0081 6.008 l -0.258,58.25 -0.2581,58.25 -6.0024,0.29129 c -3.8449,0.18659 -6.6577,-0.1879 -7.8257,-1.0419 -1.0027,-0.73326 -3.2998,-4.68934 -5.1045,-8.79129 -1.8047,-4.10196 -10.1351,-23.2081 -18.5121,-42.4581 -21.0768,-48.4339 -19.9352,-46.02014 -21.1784,-44.77696 -0.7442,0.74426 -0.9665,15.66391 -0.7251,48.66432 0.285,38.95223 0.1064,47.68373 -0.9836,48.10182 -1.6272,0.62413 -6.2135,0.5364 -7.9182,-0.15146 z m 182.9576,-0.11186 c -1.0311,-0.71513 -1.2881,-12.34858 -1.2712,-57.56106 0.012,-31.16564 0.031,-57.1148 0.042,-57.6648 0.014,-0.64363 10.5536,-1 29.576,-1 h 29.5548 l -0.3048,4.75 -0.3048,4.75 -21.9802,0.19358 c -12.0892,0.10647 -22.7827,0.4034 -23.7633,0.65986 l -1.7831,0.46627 0.074,18.48176 c 0.056,13.90984 0.4102,18.94148 1.4338,20.34015 l 1.3601,1.85838 h 20.8295 20.8296 l 0.3013,4.12361 0.3013,4.12361 -2.8013,0.54232 c -1.5407,0.29828 -11.0833,0.45678 -21.2057,0.35224 -14.0996,-0.14562 -18.7127,0.11817 -19.7223,1.12777 -1.8406,1.8406 -1.6634,41.45145 0.1968,43.99543 l 1.2639,1.72854 20.9761,-0.34809 c 11.5368,-0.19145 21.9241,-0.0472 23.083,0.32063 1.672,0.53069 2.1069,1.48044 2.1069,4.60133 v 3.93261 h -19.8464 c -10.9155,0 -23.853,0.25248 -28.75,0.56106 -4.897,0.30859 -9.4852,0.15775 -10.196,-0.3352 z m 77.0424,0.11186 c -0.9798,-0.39536 -1.25,-13.02339 -1.25,-58.42105 v -57.91667 h 6.845 c 7.8118,0 8.9402,0.77063 11.7135,8 1.6514,4.30462 10.3358,24.21632 22.2435,51 3.0566,6.875 7.662,17.675 10.2344,24 2.5723,6.325 5.0789,11.5 5.5703,11.5 0.5081,0 1.0053,-20.37213 1.1531,-47.25 l 0.2598,-47.25 h 5.9982 5.9983 l -0.258,58.25 -0.2581,58.25 -6.0024,0.29129 c -3.7608,0.18251 -6.6588,-0.19094 -7.7601,-1 -0.9667,-0.71021 -4.4058,-7.36629 -7.6424,-14.79129 -3.2366,-7.425 -9.3603,-21.375 -13.6082,-31 -12.2682,-27.79716 -15.4145,-35.0696 -18.1709,-42 -2.9147,-7.32846 -4.1404,-9.22656 -5.4396,-8.42362 -0.5243,0.32402 -0.6168,20.30042 -0.2226,48.07856 0.5732,40.39595 0.4623,47.65847 -0.7397,48.41932 -1.5022,0.9509 -6.5779,1.10524 -8.6641,0.26346 z m 92,0 c -0.9798,-0.39536 -1.25,-13.02339 -1.25,-58.42105 v -57.91667 h 6 6 v 57.89301 c 0,51.86836 -0.1646,57.95618 -1.5818,58.5 -1.8449,0.70797 -7.359,0.67472 -9.1682,-0.0553 z m 33.339,-0.082 c -0.3239,-0.324 -0.589,-26.62075 -0.589,-58.43727 v -57.84821 l 29.75,0.26488 29.75,0.26488 0.3088,3.18844 c 0.2419,2.49858 -0.2375,3.54636 -2.216,4.84269 -2.19,1.43494 -5.3464,1.61317 -23.8087,1.34436 l -21.2841,-0.30989 v 20.9672 20.9672 h 21.5 21.5 l 0.3059,4.21692 0.3059,4.21693 -2.6711,0.6704 c -1.4691,0.36872 -11.4025,0.34804 -22.0742,-0.0459 l -19.4031,-0.71636 0.2683,23.82903 0.2683,23.82903 h 23.5 23.5 l 0.3075,4.25 c 0.2119,2.92872 -0.087,4.25 -0.9614,4.25 -0.698,0 -13.9588,0.19006 -29.4685,0.42235 -15.5098,0.23229 -28.4646,0.15729 -28.7886,-0.16667 z m 77.6991,-0.0303 c -0.9237,-0.60698 -1.2392,-14.46327 -1.3265,-58.26091 l -0.1146,-57.46451 h 22.8265 22.8265 l 4.7473,2.33791 c 5.8206,2.86646 11.1283,8.88127 13.1984,14.95682 1.9592,5.7498 2.013,18.36339 0.1054,24.70189 -1.5206,5.05251 -7.3152,12.01184 -11.3011,13.57276 -2.9999,1.17478 -2.8376,2.57356 0.5,4.30993 7.8953,4.10748 9.9903,9.53027 11.3423,29.35971 0.591,8.66854 1.7121,17.75364 2.4912,20.18912 2.1324,6.66616 1.9689,7.07363 -2.8335,7.05821 -9.5985,-0.0308 -9.4132,0.36945 -10.706,-23.13494 -1.015,-18.45318 -2.5154,-23.11736 -8.667,-26.94134 l -3.877,-2.41007 -14.7332,-0.34138 -14.7332,-0.34138 -0.2668,26.34138 -0.2668,26.34138 -4,0.26091 c -2.2,0.1435 -4.5454,-0.0975 -5.2119,-0.53548 z m 38.0607,-63.44808 c 5.4518,-1.63338 12.1453,-8.19654 13.5412,-13.27734 3.6182,-13.17063 -1.963,-25.66152 -12.6855,-28.39011 -2.0375,-0.51849 -9.3295,-1.09282 -16.2045,-1.2763 l -12.5,-0.33359 -0.2691,22.25 -0.2692,22.25 h 12.1531 c 6.6857,0 13.989,-0.55004 16.234,-1.22265 z m 47.3179,63.55598 c -0.3667,-0.36665 -0.6667,-26.71411 -0.6667,-58.54989 v -57.88324 l 5.75,0.29991 5.75,0.2999 0.5,57.34896 0.5,57.34895 -1.6843,0.90105 c -1.9566,1.04673 -9.1701,1.21332 -10.149,0.23437 z m 24.9105,-0.20847 c -0.2975,-0.48132 0.1,-2.84382 0.8822,-5.25 0.7827,-2.40617 4.1922,-13.82486 7.5765,-25.37486 3.3844,-11.55 8.3095,-28.2 10.9448,-37 9.4204,-31.45836 12.0193,-40.55059 12.0193,-42.04959 0,-0.83642 0.7268,-2.62993 1.615,-3.98558 1.432,-2.18553 2.3248,-2.46482 7.8787,-2.46482 h 6.2637 l 1.0582,2.75 c 0.582,1.5125 3.3659,10.625 6.1865,20.25 4.9053,16.73911 8.8918,30.28424 15.01,51 1.5432,5.225 4.8977,16.58845 7.4546,25.2521 2.5568,8.66366 4.3393,16.25279 3.9611,16.86475 -0.8941,1.44667 -10.3814,0.57628 -11.383,-1.0443 -0.4081,-0.66031 -2.1894,-7.13425 -3.9586,-14.38655 -1.7692,-7.2523 -3.8727,-14.1985 -4.6745,-15.436 l -1.4578,-2.25 h -18.8545 c -13.8941,0 -19.1124,0.32886 -19.8349,1.25 -0.5391,0.6875 -1.9878,5.47458 -3.2191,10.63795 -3.0083,12.61436 -5.5842,20.20453 -7.2058,21.23235 -1.7662,1.11949 -9.5712,1.12296 -10.2624,0.005 z m 57.0475,-44.58933 c 0.3091,-0.80546 -0.3379,-4.29296 -1.4378,-7.75 -1.0998,-3.45704 -2.2153,-7.18553 -2.4787,-8.28553 -0.2634,-1.1 -2.3893,-8.75 -4.7241,-17 -2.3349,-8.25 -4.749,-17.38302 -5.3647,-20.29559 -2.0672,-9.77932 -2.4531,-8.96037 -10.9969,23.34047 -3.0615,11.57468 -6.251,22.98509 -7.0877,25.35647 -0.8367,2.37139 -1.2727,4.71369 -0.969,5.20513 0.3037,0.49144 7.7398,0.89352 16.5246,0.89352 13.1029,0 16.0733,-0.26309 16.5343,-1.46447 z m -83.0381,-76.39543 c -0.2923,-0.47295 1.2399,-4.52295 3.405,-9 l 3.9365,-8.14009 h 6.0359 c 3.3198,0 6.036,0.24392 6.036,0.54204 0,0.29812 -1.3717,2.43562 -3.0481,4.75 -1.6765,2.31438 -4.3793,6.12046 -6.0063,8.45796 -2.5064,3.60092 -3.4827,4.25 -6.3929,4.25 -1.889,0 -3.6738,-0.38696 -3.9661,-0.8599 z"
       id="path2" />
  </g>
</svg>
